<svg xmlns="http://www.w3.org/2000/svg" width="2420" height="1720" viewBox="0 0 2420 1720" font-family="Segoe UI, Arial, sans-serif">
<defs><marker id="arrow" viewBox="0 0 10 10" refX="9" refY="5" markerWidth="7" markerHeight="7" orient="auto-start-reverse"><path d="M0,0 L10,5 L0,10 z" fill="#475569"/></marker></defs>
<rect width="2420" height="1720" fill="#FFFFFF"/>
<text font-size="24" font-weight="800" fill="#1E293B" text-anchor="middle" dominant-baseline="middle"><tspan x="1210.0" y="22.0">Level 1 Data Flow Diagram of ResQ</tspan></text>
<path d="M273.4,668.1 L669.3,288.1" fill="none" stroke="#475569" stroke-width="1.8" marker-end="url(#arrow)"/><text font-size="12.5" font-weight="600" fill="#1D4ED8" text-anchor="start" dominant-baseline="middle"><tspan x="493.4" y="489.0">Registration &amp; login</tspan><tspan x="493.4" y="504.7">details, OTP entered</tspan></text>
<path d="M649.9,267.9 L254.1,647.9" fill="none" stroke="#475569" stroke-width="1.8" marker-end="url(#arrow)"/><text font-size="12.5" font-weight="600" fill="#1D4ED8" text-anchor="end" dominant-baseline="middle"><tspan x="435.5" y="444.9">Login result</tspan></text>
<path d="M595.0,192.5 L335.0,135.3" fill="none" stroke="#475569" stroke-width="1.8" marker-end="url(#arrow)"/><text font-size="12.5" font-weight="600" fill="#1D4ED8" text-anchor="middle" dominant-baseline="middle"><tspan x="468.9" y="146.3">Login code (OTP)</tspan></text>
<path d="M595.0,247.5 L335.0,304.7" fill="none" stroke="#475569" stroke-width="1.8" marker-end="url(#arrow)"/><text font-size="12.5" font-weight="600" fill="#1D4ED8" text-anchor="middle" dominant-baseline="middle"><tspan x="461.1" y="258.5">Password reset request</tspan></text>
<path d="M845.0,234.0 L1045.0,234.0" fill="none" stroke="#475569" stroke-width="1.8" marker-end="url(#arrow)"/><text font-size="12.5" font-weight="600" fill="#1D4ED8" text-anchor="middle" dominant-baseline="middle"><tspan x="945.0" y="252.2">New / updated</tspan><tspan x="945.0" y="267.8">profile, settings</tspan></text>
<path d="M1045.0,206.0 L845.0,206.0" fill="none" stroke="#475569" stroke-width="1.8" marker-end="url(#arrow)"/><text font-size="12.5" font-weight="600" fill="#1D4ED8" text-anchor="middle" dominant-baseline="middle"><tspan x="945.0" y="188.0">User record, role</tspan></text>
<path d="M2230.0,178.0 L2230.0,70.0 L720.0,70.0 L720.0,162.0" fill="none" stroke="#475569" stroke-width="1.8" marker-end="url(#arrow)"/><text font-size="12.5" font-weight="600" fill="#1D4ED8" text-anchor="middle" dominant-baseline="middle"><tspan x="1420.0" y="58.0">Account &amp; department changes</tspan></text>
<path d="M845.0,251.9 L1554.2,433.0" fill="none" stroke="#475569" stroke-width="1.8" marker-end="url(#arrow)"/><text font-size="12.5" font-weight="600" fill="#1D4ED8" text-anchor="middle" dominant-baseline="middle"><tspan x="1204.1" y="325.0">Log entries</tspan></text>
<path d="M335.0,714.0 L595.0,714.0" fill="none" stroke="#475569" stroke-width="1.8" marker-end="url(#arrow)"/><text font-size="12.5" font-weight="600" fill="#1D4ED8" text-anchor="middle" dominant-baseline="middle"><tspan x="465.0" y="732.2">Emergency report (type, location,</tspan><tspan x="465.0" y="747.8">description, photos)</tspan></text>
<path d="M595.0,686.0 L335.0,686.0" fill="none" stroke="#475569" stroke-width="1.8" marker-end="url(#arrow)"/><text font-size="12.5" font-weight="600" fill="#1D4ED8" text-anchor="middle" dominant-baseline="middle"><tspan x="465.0" y="668.0">Request status</tspan></text>
<path d="M652.2,769.1 L283.7,1049.1" fill="none" stroke="#475569" stroke-width="1.8" marker-end="url(#arrow)"/><text font-size="12.5" font-weight="600" fill="#1D4ED8" text-anchor="start" dominant-baseline="middle"><tspan x="482.8" y="923.5">Incident photos</tspan></text>
<path d="M266.8,1026.9 L635.2,746.9" fill="none" stroke="#475569" stroke-width="1.8" marker-end="url(#arrow)"/><text font-size="12.5" font-weight="600" fill="#1D4ED8" text-anchor="end" dominant-baseline="middle"><tspan x="436.1" y="872.5">Photo URLs</tspan></text>
<path d="M1144.7,247.0 L774.4,642.0" fill="none" stroke="#475569" stroke-width="1.8" marker-end="url(#arrow)"/><text font-size="12.5" font-weight="600" fill="#1D4ED8" text-anchor="end" dominant-baseline="middle"><tspan x="942.4" y="432.2">Reporter details</tspan></text>
<path d="M845.0,714.0 L1045.0,714.0" fill="none" stroke="#475569" stroke-width="1.8" marker-end="url(#arrow)"/><text font-size="12.5" font-weight="600" fill="#1D4ED8" text-anchor="middle" dominant-baseline="middle"><tspan x="945.0" y="732.0">New incident record</tspan></text>
<path d="M1045.0,686.0 L845.0,686.0" fill="none" stroke="#475569" stroke-width="1.8" marker-end="url(#arrow)"/><text font-size="12.5" font-weight="600" fill="#1D4ED8" text-anchor="middle" dominant-baseline="middle"><tspan x="945.0" y="668.0">Incident status</tspan></text>
<path d="M799.1,758.0 L1090.9,972.0" fill="none" stroke="#475569" stroke-width="1.8" marker-end="url(#arrow)"/><text font-size="12.5" font-weight="600" fill="#1D4ED8" text-anchor="start" dominant-baseline="middle"><tspan x="959.6" y="850.5">New-incident event</tspan></text>
<path d="M845.0,668.1 L1554.2,487.0" fill="none" stroke="#475569" stroke-width="1.8" marker-end="url(#arrow)"/><text font-size="12.5" font-weight="600" fill="#1D4ED8" text-anchor="middle" dominant-baseline="middle"><tspan x="1195.2" y="560.1">Log entries</tspan></text>
<path d="M1295.0,714.0 L1535.0,714.0" fill="none" stroke="#475569" stroke-width="1.8" marker-end="url(#arrow)"/><text font-size="12.5" font-weight="600" fill="#1D4ED8" text-anchor="middle" dominant-baseline="middle"><tspan x="1415.0" y="732.0">Pending incidents</tspan></text>
<path d="M1535.0,686.0 L1295.0,686.0" fill="none" stroke="#475569" stroke-width="1.8" marker-end="url(#arrow)"/><text font-size="12.5" font-weight="600" fill="#1D4ED8" text-anchor="middle" dominant-baseline="middle"><tspan x="1415.0" y="668.0">Status updates</tspan></text>
<path d="M2115.0,714.0 L1785.0,714.0" fill="none" stroke="#475569" stroke-width="1.8" marker-end="url(#arrow)"/><text font-size="12.5" font-weight="600" fill="#1D4ED8" text-anchor="middle" dominant-baseline="middle"><tspan x="1950.0" y="732.2">Accept / dispatch /</tspan><tspan x="1950.0" y="747.8">complete decisions</tspan></text>
<path d="M1785.0,686.0 L2115.0,686.0" fill="none" stroke="#475569" stroke-width="1.8" marker-end="url(#arrow)"/><text font-size="12.5" font-weight="600" fill="#1D4ED8" text-anchor="middle" dominant-baseline="middle"><tspan x="1950.0" y="668.0">Incident queue &amp; details</tspan></text>
<path d="M1660.0,758.0 L1660.0,1003.0" fill="none" stroke="#475569" stroke-width="1.8" marker-end="url(#arrow)"/><text font-size="12.5" font-weight="600" fill="#1D4ED8" text-anchor="start" dominant-baseline="middle"><tspan x="1682.0" y="880.5">Dispatch record</tspan></text>
<path d="M1660.0,642.0 L1660.0,487.0" fill="none" stroke="#475569" stroke-width="1.8" marker-end="url(#arrow)"/><text font-size="12.5" font-weight="600" fill="#1D4ED8" text-anchor="start" dominant-baseline="middle"><tspan x="1682.0" y="564.5">Log entries</tspan></text>
<path d="M1199.9,1400.9 L1632.1,765.9" fill="none" stroke="#475569" stroke-width="1.8" marker-end="url(#arrow)"/><text font-size="12.5" font-weight="600" fill="#1D4ED8" text-anchor="start" dominant-baseline="middle"><tspan x="1352.0" y="1216.0">Available vehicles</tspan></text>
<path d="M1609.0,750.1 L1176.8,1385.1" fill="none" stroke="#475569" stroke-width="1.8" marker-end="url(#arrow)"/><text font-size="12.5" font-weight="600" fill="#1D4ED8" text-anchor="end" dominant-baseline="middle"><tspan x="1250.0" y="1216.0">Vehicle status</tspan></text>
<path d="M1573.9,758.0 L1256.1,972.0" fill="none" stroke="#475569" stroke-width="1.8" marker-end="url(#arrow)"/><text font-size="12.5" font-weight="600" fill="#1D4ED8" text-anchor="end" dominant-baseline="middle"><tspan x="1396.5" y="835.6">Status &amp; dispatch</tspan><tspan x="1396.5" y="851.2">events</tspan></text>
<path d="M2115.0,1292.3 L1785.0,1384.9" fill="none" stroke="#475569" stroke-width="1.8" marker-end="url(#arrow)"/><text font-size="12.5" font-weight="600" fill="#1D4ED8" text-anchor="middle" dominant-baseline="middle"><tspan x="1943.0" y="1305.8">GPS location</tspan><tspan x="1943.0" y="1321.4">(lat, long, speed)</tspan></text>
<path d="M2196.8,742.0 L1705.9,1362.0" fill="none" stroke="#475569" stroke-width="1.8" marker-end="url(#arrow)"/><text font-size="12.5" font-weight="600" fill="#1D4ED8" text-anchor="end" dominant-baseline="middle"><tspan x="1926.9" y="1028.0">Vehicle details &amp;</tspan><tspan x="1926.9" y="1043.7">assignments</tspan></text>
<path d="M2115.0,1547.7 L1785.0,1455.1" fill="none" stroke="#475569" stroke-width="1.8" marker-end="url(#arrow)"/><text font-size="12.5" font-weight="600" fill="#1D4ED8" text-anchor="middle" dominant-baseline="middle"><tspan x="1954.9" y="1484.1">Map tiles</tspan></text>
<path d="M1535.0,1434.0 L1295.0,1434.0" fill="none" stroke="#475569" stroke-width="1.8" marker-end="url(#arrow)"/><text font-size="12.5" font-weight="600" fill="#1D4ED8" text-anchor="middle" dominant-baseline="middle"><tspan x="1415.0" y="1452.2">Tracker location,</tspan><tspan x="1415.0" y="1467.8">vehicle data</tspan></text>
<path d="M1295.0,1406.0 L1535.0,1406.0" fill="none" stroke="#475569" stroke-width="1.8" marker-end="url(#arrow)"/><text font-size="12.5" font-weight="600" fill="#1D4ED8" text-anchor="middle" dominant-baseline="middle"><tspan x="1415.0" y="1388.0">Vehicle list</tspan></text>
<path d="M1535.0,1030.0 L1295.0,1030.0" fill="none" stroke="#475569" stroke-width="1.8" marker-end="url(#arrow)"/><text font-size="12.5" font-weight="600" fill="#1D4ED8" text-anchor="end" dominant-baseline="middle"><tspan x="1532.0" y="1058.2">Dispatched</tspan><tspan x="1532.0" y="1073.8">units</tspan></text>
<path d="M1170.0,1393.0 L1170.0,1088.0" fill="none" stroke="#475569" stroke-width="1.8" marker-end="url(#arrow)"/><text font-size="12.5" font-weight="600" fill="#1D4ED8" text-anchor="end" dominant-baseline="middle"><tspan x="1153.0" y="1231.2">Live vehicle</tspan><tspan x="1153.0" y="1246.8">location</tspan></text>
<path d="M1045.0,1030.0 L845.0,1030.0" fill="none" stroke="#475569" stroke-width="1.8" marker-end="url(#arrow)"/><text font-size="12.5" font-weight="600" fill="#1D4ED8" text-anchor="middle" dominant-baseline="middle"><tspan x="945.0" y="1012.0">Notification record</tspan></text>
<path d="M1295.0,991.1 L2115.0,735.8" fill="none" stroke="#475569" stroke-width="1.8" marker-end="url(#arrow)"/><text font-size="12.5" font-weight="600" fill="#1D4ED8" text-anchor="middle" dominant-baseline="middle"><tspan x="1943.0" y="818.0">Alerts &amp; live updates</tspan></text>
<path d="M1045.0,986.6 L335.0,739.9" fill="none" stroke="#475569" stroke-width="1.8" marker-end="url(#arrow)"/><text font-size="12.5" font-weight="600" fill="#1D4ED8" text-anchor="middle" dominant-baseline="middle"><tspan x="698.5" y="830.9">Dispatched unit &amp;</tspan><tspan x="698.5" y="846.5">live location</tspan></text>
<path d="M1660.0,433.0 L1660.0,278.0" fill="none" stroke="#475569" stroke-width="1.8" marker-end="url(#arrow)"/><text font-size="12.5" font-weight="600" fill="#1D4ED8" text-anchor="start" dominant-baseline="middle"><tspan x="1682.0" y="355.5">Audit log entries</tspan></text>
<path d="M1295.0,220.0 L1535.0,220.0" fill="none" stroke="#475569" stroke-width="1.8" marker-end="url(#arrow)"/><text font-size="12.5" font-weight="600" fill="#1D4ED8" text-anchor="middle" dominant-baseline="middle"><tspan x="1415.0" y="202.0">User data</tspan></text>
<path d="M1197.6,673.0 L1600.8,278.0" fill="none" stroke="#475569" stroke-width="1.8" marker-end="url(#arrow)"/><text font-size="12.5" font-weight="600" fill="#1D4ED8" text-anchor="end" dominant-baseline="middle"><tspan x="1382.6" y="462.6">Incident data</tspan></text>
<path d="M1785.0,220.0 L2115.0,220.0" fill="none" stroke="#475569" stroke-width="1.8" marker-end="url(#arrow)"/><text font-size="12.5" font-weight="600" fill="#1D4ED8" text-anchor="middle" dominant-baseline="middle"><tspan x="1950.0" y="186.2">Dashboard, audit reports</tspan><tspan x="1950.0" y="201.8">(PDF / ZIP / CSV)</tspan></text>
<path d="M1728.9,278.0 L2180.1,658.0" fill="none" stroke="#475569" stroke-width="1.8" marker-end="url(#arrow)"/><text font-size="12.5" font-weight="600" fill="#1D4ED8" text-anchor="start" dominant-baseline="middle"><tspan x="1975.2" y="440.3">Dashboard &amp;</tspan><tspan x="1975.2" y="455.9">activity logs</tspan></text>
<rect x="111.0" y="74.0" width="230" height="84" fill="#CBD5E1"/><rect x="105.0" y="68.0" width="230" height="84" fill="#F8FAFC" stroke="#1E293B" stroke-width="2"/><text font-size="15" font-weight="700" fill="#1E293B" text-anchor="middle" dominant-baseline="middle"><tspan x="220.0" y="100.6">Email Service</tspan><tspan x="220.0" y="119.4">(EmailJS)</tspan></text>
<rect x="111.0" y="294.0" width="230" height="84" fill="#CBD5E1"/><rect x="105.0" y="288.0" width="230" height="84" fill="#F8FAFC" stroke="#1E293B" stroke-width="2"/><text font-size="15" font-weight="700" fill="#1E293B" text-anchor="middle" dominant-baseline="middle"><tspan x="220.0" y="320.6">Firebase Auth</tspan><tspan x="220.0" y="339.4">Email</tspan></text>
<rect x="111.0" y="664.0" width="230" height="84" fill="#CBD5E1"/><rect x="105.0" y="658.0" width="230" height="84" fill="#F8FAFC" stroke="#1E293B" stroke-width="2"/><text font-size="15" font-weight="700" fill="#1E293B" text-anchor="middle" dominant-baseline="middle"><tspan x="220.0" y="690.6">Citizen /</tspan><tspan x="220.0" y="709.4">Resident</tspan></text>
<rect x="111.0" y="1044.0" width="230" height="84" fill="#CBD5E1"/><rect x="105.0" y="1038.0" width="230" height="84" fill="#F8FAFC" stroke="#1E293B" stroke-width="2"/><text font-size="15" font-weight="700" fill="#1E293B" text-anchor="middle" dominant-baseline="middle"><tspan x="220.0" y="1070.6">Photo Storage</tspan><tspan x="220.0" y="1089.4">(Cloudinary)</tspan></text>
<rect x="2121.0" y="184.0" width="230" height="84" fill="#CBD5E1"/><rect x="2115.0" y="178.0" width="230" height="84" fill="#F8FAFC" stroke="#1E293B" stroke-width="2"/><text font-size="15" font-weight="700" fill="#1E293B" text-anchor="middle" dominant-baseline="middle"><tspan x="2230.0" y="210.6">Super Admin</tspan><tspan x="2230.0" y="229.4">(EOC)</tspan></text>
<rect x="2121.0" y="664.0" width="230" height="84" fill="#CBD5E1"/><rect x="2115.0" y="658.0" width="230" height="84" fill="#F8FAFC" stroke="#1E293B" stroke-width="2"/><text font-size="15" font-weight="700" fill="#1E293B" text-anchor="middle" dominant-baseline="middle"><tspan x="2230.0" y="690.6">Department Admin</tspan><tspan x="2230.0" y="709.4">(BFP / PNP / CDRRMO)</tspan></text>
<rect x="2121.0" y="1224.0" width="230" height="84" fill="#CBD5E1"/><rect x="2115.0" y="1218.0" width="230" height="84" fill="#F8FAFC" stroke="#1E293B" stroke-width="2"/><text font-size="15" font-weight="700" fill="#1E293B" text-anchor="middle" dominant-baseline="middle"><tspan x="2230.0" y="1250.6">GPS Tracker</tspan><tspan x="2230.0" y="1269.4">(ESP32 in vehicle)</tspan></text>
<rect x="2121.0" y="1544.0" width="230" height="84" fill="#CBD5E1"/><rect x="2115.0" y="1538.0" width="230" height="84" fill="#F8FAFC" stroke="#1E293B" stroke-width="2"/><text font-size="15" font-weight="700" fill="#1E293B" text-anchor="middle" dominant-baseline="middle"><tspan x="2230.0" y="1570.6">Map Provider</tspan><tspan x="2230.0" y="1589.4">(OpenStreetMap)</tspan></text>
<rect x="595.0" y="162.0" width="250" height="116" rx="16" fill="#FFF7ED" stroke="#FF6B00" stroke-width="2.5"/><path d="M595.0,196.0 H845.0" stroke="#FF6B00" stroke-width="2"/><path d="M611.0,162.0 H829.0 Q845.0,162.0 845.0,178.0 V196.0 H595.0 V178.0 Q595.0,162.0 611.0,162.0 Z" fill="#FF6B00"/><text font-size="15" font-weight="800" fill="#FFFFFF" text-anchor="middle" dominant-baseline="middle"><tspan x="720.0" y="179.0">1.0</tspan></text><text font-size="15" font-weight="700" fill="#1E293B" text-anchor="middle" dominant-baseline="middle"><tspan x="720.0" y="227.6">Authenticate &amp;</tspan><tspan x="720.0" y="246.4">Manage Users</tspan></text>
<rect x="595.0" y="642.0" width="250" height="116" rx="16" fill="#FFF7ED" stroke="#FF6B00" stroke-width="2.5"/><path d="M595.0,676.0 H845.0" stroke="#FF6B00" stroke-width="2"/><path d="M611.0,642.0 H829.0 Q845.0,642.0 845.0,658.0 V676.0 H595.0 V658.0 Q595.0,642.0 611.0,642.0 Z" fill="#FF6B00"/><text font-size="15" font-weight="800" fill="#FFFFFF" text-anchor="middle" dominant-baseline="middle"><tspan x="720.0" y="659.0">2.0</tspan></text><text font-size="15" font-weight="700" fill="#1E293B" text-anchor="middle" dominant-baseline="middle"><tspan x="720.0" y="707.6">Submit Emergency</tspan><tspan x="720.0" y="726.4">Request</tspan></text>
<rect x="1535.0" y="642.0" width="250" height="116" rx="16" fill="#FFF7ED" stroke="#FF6B00" stroke-width="2.5"/><path d="M1535.0,676.0 H1785.0" stroke="#FF6B00" stroke-width="2"/><path d="M1551.0,642.0 H1769.0 Q1785.0,642.0 1785.0,658.0 V676.0 H1535.0 V658.0 Q1535.0,642.0 1551.0,642.0 Z" fill="#FF6B00"/><text font-size="15" font-weight="800" fill="#FFFFFF" text-anchor="middle" dominant-baseline="middle"><tspan x="1660.0" y="659.0">3.0</tspan></text><text font-size="15" font-weight="700" fill="#1E293B" text-anchor="middle" dominant-baseline="middle"><tspan x="1660.0" y="707.6">Manage &amp; Dispatch</tspan><tspan x="1660.0" y="726.4">Incidents</tspan></text>
<rect x="1535.0" y="1362.0" width="250" height="116" rx="16" fill="#FFF7ED" stroke="#FF6B00" stroke-width="2.5"/><path d="M1535.0,1396.0 H1785.0" stroke="#FF6B00" stroke-width="2"/><path d="M1551.0,1362.0 H1769.0 Q1785.0,1362.0 1785.0,1378.0 V1396.0 H1535.0 V1378.0 Q1535.0,1362.0 1551.0,1362.0 Z" fill="#FF6B00"/><text font-size="15" font-weight="800" fill="#FFFFFF" text-anchor="middle" dominant-baseline="middle"><tspan x="1660.0" y="1379.0">4.0</tspan></text><text font-size="15" font-weight="700" fill="#1E293B" text-anchor="middle" dominant-baseline="middle"><tspan x="1660.0" y="1427.6">Track Response</tspan><tspan x="1660.0" y="1446.4">Vehicles</tspan></text>
<rect x="1045.0" y="972.0" width="250" height="116" rx="16" fill="#FFF7ED" stroke="#FF6B00" stroke-width="2.5"/><path d="M1045.0,1006.0 H1295.0" stroke="#FF6B00" stroke-width="2"/><path d="M1061.0,972.0 H1279.0 Q1295.0,972.0 1295.0,988.0 V1006.0 H1045.0 V988.0 Q1045.0,972.0 1061.0,972.0 Z" fill="#FF6B00"/><text font-size="15" font-weight="800" fill="#FFFFFF" text-anchor="middle" dominant-baseline="middle"><tspan x="1170.0" y="989.0">5.0</tspan></text><text font-size="15" font-weight="700" fill="#1E293B" text-anchor="middle" dominant-baseline="middle"><tspan x="1170.0" y="1037.6">Send Notifications</tspan><tspan x="1170.0" y="1056.4">&amp; Live Updates</tspan></text>
<rect x="1535.0" y="162.0" width="250" height="116" rx="16" fill="#FFF7ED" stroke="#FF6B00" stroke-width="2.5"/><path d="M1535.0,196.0 H1785.0" stroke="#FF6B00" stroke-width="2"/><path d="M1551.0,162.0 H1769.0 Q1785.0,162.0 1785.0,178.0 V196.0 H1535.0 V178.0 Q1535.0,162.0 1551.0,162.0 Z" fill="#FF6B00"/><text font-size="15" font-weight="800" fill="#FFFFFF" text-anchor="middle" dominant-baseline="middle"><tspan x="1660.0" y="179.0">6.0</tspan></text><text font-size="15" font-weight="700" fill="#1E293B" text-anchor="middle" dominant-baseline="middle"><tspan x="1660.0" y="227.6">Generate Reports</tspan><tspan x="1660.0" y="246.4">&amp; Logs</tspan></text>
<rect x="1045.0" y="193.0" width="250" height="54" fill="#FFFFFF"/><path d="M1295.0,193.0 H1045.0 V247.0 H1295.0" fill="none" stroke="#1E293B" stroke-width="2"/><path d="M1097.0,193.0 V247.0" stroke="#1E293B" stroke-width="2"/><text font-size="15" font-weight="800" fill="#1E293B" text-anchor="middle" dominant-baseline="middle"><tspan x="1071.0" y="220.0">D1</tspan></text><text font-size="14.5" font-weight="700" fill="#1E293B" text-anchor="middle" dominant-baseline="middle"><tspan x="1196.0" y="220.0">Users</tspan></text>
<rect x="1045.0" y="673.0" width="250" height="54" fill="#FFFFFF"/><path d="M1295.0,673.0 H1045.0 V727.0 H1295.0" fill="none" stroke="#1E293B" stroke-width="2"/><path d="M1097.0,673.0 V727.0" stroke="#1E293B" stroke-width="2"/><text font-size="15" font-weight="800" fill="#1E293B" text-anchor="middle" dominant-baseline="middle"><tspan x="1071.0" y="700.0">D2</tspan></text><text font-size="14.5" font-weight="700" fill="#1E293B" text-anchor="middle" dominant-baseline="middle"><tspan x="1196.0" y="700.0">Incidents</tspan></text>
<rect x="1535.0" y="1003.0" width="250" height="54" fill="#FFFFFF"/><path d="M1785.0,1003.0 H1535.0 V1057.0 H1785.0" fill="none" stroke="#1E293B" stroke-width="2"/><path d="M1587.0,1003.0 V1057.0" stroke="#1E293B" stroke-width="2"/><text font-size="15" font-weight="800" fill="#1E293B" text-anchor="middle" dominant-baseline="middle"><tspan x="1561.0" y="1030.0">D3</tspan></text><text font-size="14.5" font-weight="700" fill="#1E293B" text-anchor="middle" dominant-baseline="middle"><tspan x="1686.0" y="1030.0">Dispatches</tspan></text>
<rect x="1045.0" y="1393.0" width="250" height="54" fill="#FFFFFF"/><path d="M1295.0,1393.0 H1045.0 V1447.0 H1295.0" fill="none" stroke="#1E293B" stroke-width="2"/><path d="M1097.0,1393.0 V1447.0" stroke="#1E293B" stroke-width="2"/><text font-size="15" font-weight="800" fill="#1E293B" text-anchor="middle" dominant-baseline="middle"><tspan x="1071.0" y="1420.0">D4</tspan></text><text font-size="14.5" font-weight="700" fill="#1E293B" text-anchor="middle" dominant-baseline="middle"><tspan x="1196.0" y="1420.0">Vehicles &amp; Trackers</tspan></text>
<rect x="595.0" y="1003.0" width="250" height="54" fill="#FFFFFF"/><path d="M845.0,1003.0 H595.0 V1057.0 H845.0" fill="none" stroke="#1E293B" stroke-width="2"/><path d="M647.0,1003.0 V1057.0" stroke="#1E293B" stroke-width="2"/><text font-size="15" font-weight="800" fill="#1E293B" text-anchor="middle" dominant-baseline="middle"><tspan x="621.0" y="1030.0">D5</tspan></text><text font-size="14.5" font-weight="700" fill="#1E293B" text-anchor="middle" dominant-baseline="middle"><tspan x="746.0" y="1030.0">Notifications</tspan></text>
<rect x="1535.0" y="433.0" width="250" height="54" fill="#FFFFFF"/><path d="M1785.0,433.0 H1535.0 V487.0 H1785.0" fill="none" stroke="#1E293B" stroke-width="2"/><path d="M1587.0,433.0 V487.0" stroke="#1E293B" stroke-width="2"/><text font-size="15" font-weight="800" fill="#1E293B" text-anchor="middle" dominant-baseline="middle"><tspan x="1561.0" y="460.0">D6</tspan></text><text font-size="14.5" font-weight="700" fill="#1E293B" text-anchor="middle" dominant-baseline="middle"><tspan x="1686.0" y="460.0">System Logs</tspan></text>
<rect x="40" y="1470" width="360" height="225" rx="8" fill="#FFFFFF" stroke="#CBD5E1"/>
<text font-size="15" font-weight="800" fill="#1E293B" text-anchor="middle" dominant-baseline="middle"><tspan x="220.0" y="1492.0">Legend</tspan></text>
<rect x="58" y="1514" width="70" height="34" fill="#F8FAFC" stroke="#1E293B" stroke-width="2"/>
<text x="144" y="1536" font-size="13" fill="#1E293B">External entity</text>
<rect x="58" y="1562" width="70" height="40" rx="8" fill="#FFF7ED" stroke="#FF6B00" stroke-width="2.5"/>
<text x="144" y="1586" font-size="13" fill="#1E293B">Process (numbered)</text>
<path d="M128,1616 H58 V1644 H128" fill="none" stroke="#1E293B" stroke-width="2"/>
<path d="M80,1616 V1644" stroke="#1E293B" stroke-width="2"/>
<text x="144" y="1634" font-size="13" fill="#1E293B">Data store (Firebase database)</text>
<path d="M58,1670 H126" stroke="#475569" stroke-width="1.8" marker-end="url(#arrow)"/>
<text x="144" y="1674" font-size="13" fill="#1E293B">Data flow</text>
</svg>